# xmcd
#
# Track frame offsets:
#	150
#	11762
#	22910
#	34252
#	47517
#	55905
#	68050
#	77175
#	87685
#	97640
#	109875
#	121840
#	132577
#	143170
#	153565
#	168200
#	181107
#	191857
#	201567
#
# Disc length: 2792 seconds
#
# Revision: 1
# Processed by: cddbd v1.5.2PL0 Copyright (c) Steve Scherf et al.
# Submitted via: audiograbber 1.83.01
#
DISCID=050ae613
DTITLE=Willie Lamothe - Héritage [CD 1)
DYEAR=2000
DGENRE=Country
TTITLE0=Giddy up Sam
TTITLE1=Chérie tu me demandes si je t'aime
TTITLE2=Aux accords des guitares
TTITLE3=Mon amour t'appartient
TTITLE4=Je suis un cow-boy fantaisiste 
TTITLE5=L'ère atomique
TTITLE6=Le train de la Gaspésie
TTITLE7=Oh! ma chérie
TTITLE8=Autour du feu 
TTITLE9=Je t'aime mon amour
TTITLE10=J'ai perdu ton amour par ma faute
TTITLE11=Reviens à moi chérie
TTITLE12=Je ne pense plus à toi
TTITLE13=L'auberge de la colline
TTITLE14=L'église de mon village 
TTITLE15=Si je pouvais revivre
TTITLE16=Je ne peux vivre sans toi
TTITLE17=La prière de l'aveugle
TTITLE18=Reviens-moi!
EXTD=
EXTT0=
EXTT1=
EXTT2=
EXTT3=
EXTT4=
EXTT5=
EXTT6=
EXTT7=
EXTT8=
EXTT9=
EXTT10=
EXTT11=
EXTT12=
EXTT13=
EXTT14=
EXTT15=
EXTT16=
EXTT17=
EXTT18=
PLAYORDER=
